HIERARCHY
ROOT Hips
{
  OFFSET 3.13124 94.3669 -3.18751
  CHANNELS  6 Xposition Yposition Zposition Zrotation Xrotation Yrotation
  JOINT LeftUpLeg
  {
    OFFSET 8.64259 1.95398 -2.38835
    CHANNELS 3 Zrotation Xrotation Yrotation
    JOINT LeftLeg
    {
      OFFSET 43.7702 0 0
      CHANNELS 3 Zrotation Xrotation Yrotation
      JOINT LeftFoot
      {
        OFFSET 40.6238 0 0
        CHANNELS 3 Zrotation Xrotation Yrotation
        JOINT LeftToeBase
        {
          OFFSET 12.7242 0 0
          CHANNELS 3 Zrotation Xrotation Yrotation
          End Site
          {
            OFFSET 0 0 0
          }
        }
      }
    }
  }
  JOINT RightUpLeg
  {
    OFFSET -8.2249 1.95398 -2.59336
    CHANNELS 3 Zrotation Xrotation Yrotation
    JOINT RightLeg
    {
      OFFSET 43.5653 0 0
      CHANNELS 3 Zrotation Xrotation Yrotation
      JOINT RightFoot
      {
        OFFSET 40.6238 0 0
        CHANNELS 3 Zrotation Xrotation Yrotation
        JOINT RightToeBase
        {
          OFFSET 12.7242 0 0
          CHANNELS 3 Zrotation Xrotation Yrotation
          End Site
          {
            OFFSET 0 0 0
          }
        }
      }
    }
  }
  JOINT Spine
  {
    OFFSET 0.165834 0.87714 6.61349
    CHANNELS 3 Zrotation Xrotation Yrotation
    JOINT Spine1
    {
      OFFSET 7.38962 1.71661e-005 0
      CHANNELS 3 Zrotation Xrotation Yrotation
      JOINT Spine2
      {
        OFFSET 11.9445 1.14441e-005 0
        CHANNELS 3 Zrotation Xrotation Yrotation
        JOINT Spine3
        {
          OFFSET 14.7254 4.19617e-005 0
          CHANNELS 3 Zrotation Xrotation Yrotation
          JOINT Spine4
          {
            OFFSET 10.9679 0 0
            CHANNELS 3 Zrotation Xrotation Yrotation
            JOINT RightShoulder
            {
              OFFSET 2.46616 -1.6653 3.69651
              CHANNELS 3 Zrotation Xrotation Yrotation
              JOINT RightArm
              {
                OFFSET 13.0012 0 0
                CHANNELS 3 Zrotation Xrotation Yrotation
                JOINT RightForeArm
                {
                  OFFSET 28.7848 1.52588e-005 0
                  CHANNELS 3 Zrotation Xrotation Yrotation
                  JOINT RightHand
                  {
                    OFFSET 26.5688 1.52588e-005 0
                    CHANNELS 3 Zrotation Xrotation Yrotation
                    End Site
                    {
                      OFFSET 0 0 0
                    }
                  }
                }
              }
            }
            JOINT LeftShoulder
            {
              OFFSET 2.38034 -1.29275 -3.75231
              CHANNELS 3 Zrotation Xrotation Yrotation
              JOINT LeftArm
              {
                OFFSET 16.3182 6.10352e-005 0
                CHANNELS 3 Zrotation Xrotation Yrotation
                JOINT LeftForeArm
                {
                  OFFSET 27.0901 0 0
                  CHANNELS 3 Zrotation Xrotation Yrotation
                  JOINT LeftHand
                  {
                    OFFSET 24.5451 1.52588e-005 0
                    CHANNELS 3 Zrotation Xrotation Yrotation
                    End Site
                    {
                      OFFSET 0 0 0
                    }
                  }
                }
              }
            }
            JOINT Neck
            {
              OFFSET 5.0226 -0.0266342 0
              CHANNELS 3 Zrotation Xrotation Yrotation
              JOINT Head
              {
                OFFSET 6.69363 2.86102e-005 0
                CHANNELS 3 Zrotation Xrotation Yrotation
                End Site
                {
                  OFFSET 0 0 0
                }
              }
            }
          }
        }
      }
    }
  }
}
MOTION
Frames:	13
Frame Time:	0.0333333
-122.198 92.0633 -68.9743 85.7586 -17.8789 85.8395 179.125 13.3614 85.728 -18.9044 -0.627359 0.0255047 71.6132 14.6814 7.28762 28.7808 6.26875e-006 9.84626e-006 -179.57 17.8583 91.9517 -29.6839 28.6018 1.74556 74.4516 -4.14644 -2.12385 28.7808 1.35792e-005 1.95737e-005 -0.166141 7.75933 -90.1509 11.3519 -0.419326 -0.861421 -0.319275 -0.45683 -0.842144 -22.8522 -0.141062 -0.94761 -2.83959 -0.141048 -0.947618 101.774 -50.0301 -82.5986 7.65963 25.8891 4.43482 -20.7858 -23.997 -40.3755 52.6328 7.35333 9.58761 -84.2358 -32.4818 84.8795 -20.7299 -15.3064 10.1951 -12.0103 -14.8422 -47.732 -43.1667 -14.5947 33.408 10.6565 8.02876 -31.3581 32.8419 17.0208 6.22032 
-121.739 92.5256 -69.0675 85.8838 -17.1496 85.8196 178.716 10.8801 85.5527 -14.3786 0.0458732 0.0396961 69.258 14.2504 7.36529 28.7808 6.26875e-006 9.84626e-006 -179.477 16.225 91.6522 -27.2 29.1098 1.80753 73.6391 -4.34001 -2.23114 28.7808 1.35792e-005 1.95737e-005 -0.139924 7.60465 -90.1927 11.661 -0.396386 -1.02105 -0.0103228 -0.440923 -1.00263 -22.5423 -0.0711964 -1.09297 -2.52964 -0.0712045 -1.09297 102.559 -49.5234 -81.375 1.54074 28.9616 5.67156 -25.2964 -29.6164 -41.8287 56.7284 6.86268 7.46826 -83.7086 -30.2128 85.4897 -17.1276 -17.5895 12.3327 -5.62628 -8.49727 -46.9206 -47.1115 -14.7538 30.3601 9.34106 8.82902 -34.7677 30.6614 18.336 7.20402 
-121.27 93.001 -69.1924 85.4687 -16.5699 85.8615 178.023 7.13289 85.5888 -6.16417 -0.367477 -0.00526619 65.3269 13.2697 7.33519 28.7808 6.26875e-006 9.84626e-006 -179.441 14.9946 91.5338 -24.4854 28.5605 1.80883 72.2 -5.78078 -2.95057 28.7808 1.35792e-005 1.95737e-005 -0.111143 7.41134 -90.3839 12.0477 -0.423994 -1.21583 0.376247 -0.477099 -1.19599 -22.1543 -0.0390424 -1.28704 -2.14172 -0.0390321 -1.28704 102.983 -48.2764 -80.6947 -3.12912 31.2641 6.06862 -27.8992 -32.7861 -42.755 57.7094 7.71876 8.74504 -82.8873 -28.3322 86.7949 -12.5785 -20.1724 12.5287 -3.36726 -6.68441 -44.3715 -52.4464 -15.4969 27.931 8.39794 9.68436 -36.7715 28.4796 19.1952 7.44974 
-120.768 93.2356 -69.3888 85.6842 -16.488 86.1322 177.723 5.61096 85.6203 -4.00469 -0.341327 -0.0194725 64.5052 13.0025 7.3197 28.7808 6.26875e-006 9.84626e-006 -179.51 13.4454 91.5196 -22.3842 28.5455 1.87134 71.731 -5.56366 -2.86579 28.7808 1.35792e-005 1.95737e-005 -0.0216812 7.28235 -90.8378 12.3043 -0.425241 -1.33128 0.632721 -0.483437 -1.31128 -21.897 -0.00552229 -1.39752 -1.88432 -0.00554582 -1.39753 103.263 -46.4905 -80.2138 -7.00839 32.9562 5.40087 -28.4542 -35.0866 -41.771 59.2745 7.89816 8.62285 -82.2651 -26.0823 87.7124 -8.86917 -22.06 14.3576 -2.65139 -5.98474 -43.8397 -53.465 -13.9076 24.0802 7.33877 10.6148 -38.4579 26.2206 19.9778 7.67818 
-120.221 93.345 -69.6566 86.6138 -17.0344 86.499 177.431 4.31583 85.472 -3.88616 -1.16651 -0.0669349 64.631 12.7957 7.18981 28.7808 6.26875e-006 9.84626e-006 -179.64 11.9833 91.3916 -21.8992 27.5965 1.80747 71.416 -5.44881 -2.82221 28.7808 1.35792e-005 1.95737e-005 0.0756088 7.23983 -91.1681 12.3896 -0.341651 -1.45401 0.717892 -0.40531 -1.43757 -21.8107 0.111081 -1.48947 -1.79809 0.111063 -1.48947 103.516 -44.2883 -79.7466 -9.97383 34.1927 4.2344 -26.7655 -35.3333 -39.4126 60.5518 8.16344 8.72401 -81.6817 -23.8514 88.6161 -6.1956 -23.4504 16.0487 -2.95795 -6.14279 -44.8278 -46.9002 -11.821 23.8143 6.17586 11.5231 -39.4735 24.1261 20.4789 7.57031 
-119.716 93.4864 -69.8495 86.604 -17.3295 86.916 177.265 4.01318 85.7059 -3.90094 -1.57766 -0.0903006 64.9181 12.6267 7.06116 28.7808 6.26875e-006 9.84626e-006 -179.741 10.7538 91.6139 -19.9666 27.0148 1.75813 70.5159 -5.80358 -3.03386 28.7808 1.35792e-005 1.95737e-005 0.17354 7.09127 -91.7173 12.6819 -0.321261 -1.5778 1.01004 -0.390375 -1.56214 -21.5174 0.167707 -1.60141 -1.5048 0.167711 -1.60141 103.611 -42.3847 -79.5317 -13.0572 35.1663 2.3392 -24.5695 -36.4838 -35.7215 60.3402 7.46067 7.60075 -81.1949 -21.2279 89.3177 -3.1617 -24.9008 16.371 -4.57505 -8.07657 -44.2034 -44.5658 -11.981 25.8428 4.88246 12.3205 -40.4651 21.9926 20.8409 7.58338 
-119.139 93.5431 -70.1505 87.7631 -17.8224 87.0901 176.692 2.60913 85.2019 -3.92174 -2.55916 -0.146588 65.236 12.7717 7.10717 28.7808 6.26875e-006 9.84626e-006 179.99 8.12132 91.19 -17.5621 26.6169 1.73404 70.8226 -4.69855 -2.48055 28.7808 1.35792e-005 1.95737e-005 0.222538 7.07741 -92.1169 12.7081 -0.280475 -1.5828 1.03624 -0.349871 -1.56894 -21.4912 0.208092 -1.59394 -1.47859 0.208118 -1.59393 103.678 -40.6063 -79.3589 -16.0201 36.0454 0.0263638 -23.6977 -39.8622 -32.6081 60.9956 6.39808 5.65626 -80.74 -18.9499 90.0533 -0.344711 -26.4088 15.239 -2.25408 -5.67297 -43.0311 -43.1929 -13.0405 29.5644 3.72121 13.0557 -41.0363 20.0132 21.0214 7.12197 
-118.693 93.6216 -70.3141 87.8594 -17.9433 87.3666 176.486 2.26449 85.2381 -3.92537 -2.81601 -0.161568 65.4838 12.9075 7.15447 28.7808 6.26875e-006 9.84626e-006 179.905 5.81573 91.2358 -13.5502 26.2975 1.71066 69.3638 -4.87592 -2.61405 28.7808 1.35792e-005 1.95737e-005 0.271528 6.93905 -92.5299 12.9801 -0.272065 -1.67462 1.30816 -0.345486 -1.66105 -21.2184 0.243744 -1.67897 -1.20577 0.243739 -1.67898 103.697 -38.5719 -79.2565 -17.5496 36.5115 -0.280549 -21.7629 -38.5153 -30.6915 52.2706 4.84032 4.68711 -80.3929 -16.8053 90.6039 2.73634 -27.7608 14.8079 -0.493262 -3.80377 -41.3724 -45.0969 -12.0622 25.6465 2.13172 13.7837 -41.4564 18.7098 21.068 6.6032 
-118.267 93.6304 -70.4425 87.8192 -17.9632 87.329 176.303 2.0814 85.037 -3.92852 -2.96229 -0.170045 65.6089 12.9041 7.1373 28.7808 6.26875e-006 9.84626e-006 179.72 5.73043 91.031 -13.8513 25.7263 1.66407 69.5725 -4.39612 -2.36102 28.7808 1.35792e-005 1.95737e-005 0.293249 6.793 -92.6756 13.2713 -0.250955 -1.73658 1.59927 -0.327128 -1.72385 -20.9267 0.282482 -1.73173 -0.914051 0.282449 -1.73174 103.904 -36.6551 -78.8026 -19.03 36.8708 -2.4861 -19.5281 -39.1189 -27.252 51.1913 4.63795 4.49868 -80.2074 -14.6627 90.7917 4.2299 -28.6425 14.5343 -4.13535 -8.18594 -41.8011 -36.6034 -9.58582 25.82 0.914328 14.2656 -41.9122 17.1579 21.0363 6.29686 
-117.835 93.7066 -70.5018 87.8058 -17.8027 87.4177 176.131 1.85598 85.0198 -3.92838 -2.86719 -0.164523 65.6838 12.7275 7.02996 28.7808 6.26875e-006 9.84626e-006 179.493 5.93688 90.9633 -14.8343 24.9714 1.59854 68.9792 -4.97846 -2.67012 28.7808 1.35792e-005 1.95737e-005 0.311101 6.65808 -92.9618 13.5379 -0.261747 -1.78451 1.86577 -0.340026 -1.77127 -20.6597 0.286574 -1.78069 -0.647032 0.286589 -1.78069 104.164 -34.6749 -78.2188 -20.1017 36.4969 -6.28195 -15.0076 -39.7338 -20.4419 49.5296 4.24531 4.02824 -79.8514 -13.1017 91.5129 6.83146 -29.7561 12.3864 -2.52577 -6.85288 -38.7756 -37.5492 -8.0861 20.5036 0.272816 14.3332 -42.0692 15.2126 20.7036 5.6801 
-117.429 93.7222 -70.5763 87.7025 -17.413 87.1396 175.9 1.78477 84.6506 -3.92278 -2.64614 -0.151669 65.5489 12.5771 6.96054 28.7808 6.26875e-006 9.84626e-006 179.282 5.72477 90.5799 -14.797 24.8697 1.59178 69.3552 -4.47551 -2.40134 28.7808 1.35792e-005 1.95737e-005 0.287227 6.51387 -93.0161 13.8282 -0.304266 -1.78621 2.15612 -0.382583 -1.7711 -20.3693 0.246505 -1.7951 -0.356606 0.24654 -1.79509 104.5 -32.613 -77.4458 -21.7455 35.2832 -11.4946 -7.51558 -40.6308 -8.92578 49.9033 2.63679 0.544459 -79.6651 -11.6299 91.8346 9.7488 -30.975 9.9651 -2.41379 -7.46199 -35.5818 -38.651 -7.76335 18.786 -0.497827 14.3147 -42.1169 13.7919 20.2929 5.20316 
-117.093 93.6018 -70.6124 87.4301 -16.8137 87.1885 175.764 1.86547 84.6942 -3.9117 -2.11511 -0.122181 66.3338 13.2928 7.26455 28.7808 6.26875e-006 9.84626e-006 179.102 6.24728 90.6208 -15.8976 25.1044 1.60811 69.6914 -3.9671 -2.13856 28.7808 1.35792e-005 1.95737e-005 0.291975 6.36097 -93.332 14.1315 -0.356292 -1.79298 2.45938 -0.434828 -1.77558 -20.0659 0.198963 -1.81717 -0.0532388 0.198967 -1.81717 104.828 -30.8268 -76.6604 -23.6937 35.4964 -13.0293 -5.46003 -45.4063 -5.48201 50.405 0.0287366 -4.93755 -79.453 -10.211 92.2504 12.7615 -31.7078 6.54055 0.00835394 -4.59867 -29.8058 -42.6017 -6.45487 12.902 -0.612175 13.9602 -42.1797 12.2894 19.7663 4.46072 
-116.771 93.5975 -70.6444 87.443 -16.1798 87.0085 175.568 1.72434 84.4148 -3.90237 -1.69738 -0.0983676 66.3343 13.1979 7.21142 28.7808 6.26875e-006 9.84626e-006 178.93 6.05807 90.3317 -16.0746 25.3074 1.62536 70.0243 -3.45349 -1.87614 28.7808 1.35792e-005 1.95737e-005 0.268838 6.24418 -93.3894 14.367 -0.385909 -1.76651 2.69489 -0.46324 -1.74784 -19.8306 0.162746 -1.80082 0.182002 0.162771 -1.80083 105.312 -28.8567 -75.4887 -26.361 37.204 -14.1506 -5.27344 -41.6188 -5.43443 72.7257 -1.22041 -6.71534 -79.4536 -9.1549 92.1294 14.6517 -33.1399 4.62447 -1.6839 -7.92214 -29.5521 -37.0574 -6.90822 17.2046 -0.536099 13.597 -42.3382 11.2292 19.3559 3.82938 
